<?xml version="1.0" encoding="UTF-8" standalone="no"?>
<svg width="128mm" height="128.00002mm" viewBox="0 0 128 128.00002" version="1.1" id="svg1" xml:space="preserve"
  xmlns="http://www.w3.org/2000/svg"
  xmlns:svg="http://www.w3.org/2000/svg">
  <g id="layer1" transform="translate(-683.99361,-132.488)">
    <path id="path11-0" style="display:inline;fill:#ffffff;fill-opacity:1;stroke:#ffffff;stroke-width:2.39243" d="m 732.89858,154.39179 -9.3028,19.10712 23.15176,2e-5 h 26.12055 c 4.61596,2.8e-4 8.35784,3.74213 8.35811,8.35809 4.6e-4,4.26011 -3.18619,7.77618 -7.30597,8.29384 l 8.32414,17.53011 c 10.55214,-3.83212 18.0897,-13.94778 18.0896,-25.8239 10e-5,-15.16903 -12.29686,-27.46597 -27.46588,-27.46584 z" />
    <path style="fill:#ffffff;fill-opacity:1;stroke:none;stroke-width:2.39241;stroke-dasharray:none" d="m 704.58832,220.66194 h 7.94741 l 32.25237,-66.27015 36.22207,0.0135 -10.11661,19.09353 H 758.21032 L 726.23995,239.781 h -31.78297 z" id="path12-3" />
    <path style="fill:#ffffff;fill-opacity:1;stroke:none;stroke-width:2.39243;stroke-dasharray:none" d="m 762.04235,190.20397 23.20486,48.91762 h -22.28955 l -12.61205,-26.8417 z" id="path13-0" />
  </g>
</svg>
